<svg width="106" height="35" viewBox="0 0 106 35" fill="none" xmlns="http://www.w3.org/2000/svg">
<path d="M36.0187 19.0147C36.0187 19.5196 35.9223 19.9934 35.7294 20.4359C35.5365 20.8784 35.2727 21.2671 34.9379 21.6018C34.6089 21.9309 34.2231 22.1918 33.7805 22.3847C33.338 22.5776 32.8643 22.6741 32.3593 22.6741H26.2576V10.4705H32.3593C32.8643 10.4705 33.338 10.567 33.7805 10.7599C34.2231 10.9528 34.6089 11.2166 34.9379 11.5513C35.2727 11.8804 35.5365 12.2662 35.7294 12.7087C35.9223 13.1512 36.0187 13.625 36.0187 14.1299C36.0187 14.3568 35.9875 14.5894 35.9251 14.8277C35.8627 15.066 35.7748 15.2958 35.6613 15.517C35.5478 15.7383 35.4117 15.9397 35.2528 16.1213C35.0939 16.3028 34.9181 16.4532 34.7252 16.5723C34.9237 16.6801 35.1024 16.8276 35.2613 17.0148C35.4202 17.1964 35.5563 17.3978 35.6698 17.6191C35.7833 17.8403 35.8684 18.0729 35.9251 18.3169C35.9875 18.5552 36.0187 18.7878 36.0187 19.0147ZM28.7 20.2317H32.3593C32.5296 20.2317 32.6884 20.2005 32.8359 20.1381C32.9834 20.0756 33.1111 19.9905 33.2189 19.8827C33.3323 19.7693 33.4203 19.6388 33.4827 19.4913C33.5451 19.3438 33.5763 19.1849 33.5763 19.0147C33.5763 18.8445 33.5451 18.6857 33.4827 18.5381C33.4203 18.3906 33.3323 18.263 33.2189 18.1552C33.1111 18.0417 32.9834 17.9538 32.8359 17.8914C32.6884 17.829 32.5296 17.7978 32.3593 17.7978H28.7V20.2317ZM28.7 15.3554H32.3593C32.5296 15.3554 32.6884 15.3242 32.8359 15.2617C32.9834 15.1993 33.1111 15.1142 33.2189 15.0064C33.3323 14.893 33.4203 14.7625 33.4827 14.615C33.5451 14.4618 33.5763 14.3001 33.5763 14.1299C33.5763 13.9597 33.5451 13.8008 33.4827 13.6533C33.4203 13.5058 33.3323 13.3782 33.2189 13.2704C33.1111 13.1569 32.9834 13.069 32.8359 13.0066C32.6884 12.9441 32.5296 12.9129 32.3593 12.9129H28.7V15.3554ZM44.3161 21.6103C44.1289 21.7805 43.9275 21.9422 43.7119 22.0954C43.502 22.2429 43.2807 22.3734 43.0481 22.4868C42.8155 22.5946 42.5744 22.6797 42.3247 22.7422C42.0808 22.8102 41.8311 22.8443 41.5758 22.8443C41.0142 22.8443 40.4865 22.745 39.9929 22.5464C39.4994 22.3479 39.0653 22.067 38.6909 21.7039C38.3221 21.3351 38.0299 20.8898 37.8143 20.3678C37.6044 19.8402 37.4995 19.2502 37.4995 18.5977V13.5597H39.8142V18.5977C39.8142 18.9041 39.8596 19.1792 39.9504 19.4232C40.0468 19.6615 40.1745 19.8629 40.3333 20.0274C40.4922 20.1919 40.6766 20.3168 40.8865 20.4019C41.1021 20.487 41.3319 20.5295 41.5758 20.5295C41.8141 20.5295 42.0382 20.4756 42.2481 20.3678C42.4637 20.2544 42.6509 20.1068 42.8098 19.9253C42.9687 19.7437 43.0935 19.5395 43.1842 19.3126C43.275 19.08 43.3204 18.8417 43.3204 18.5977V13.5597H45.6437V22.6741H45.082L44.3161 21.6103ZM50.1626 11.0833C50.1626 11.2989 50.12 11.5003 50.0349 11.6875C49.9555 11.8747 49.8448 12.0392 49.703 12.1811C49.5612 12.3172 49.3938 12.4279 49.2009 12.513C49.0137 12.5924 48.8123 12.6321 48.5967 12.6321C48.3811 12.6321 48.1769 12.5924 47.984 12.513C47.7967 12.4279 47.6322 12.3172 47.4904 12.1811C47.3542 12.0392 47.2436 11.8747 47.1585 11.6875C47.079 11.5003 47.0393 11.2989 47.0393 11.0833C47.0393 10.8733 47.079 10.6748 47.1585 10.4876C47.2436 10.2947 47.3542 10.1301 47.4904 9.99397C47.6322 9.85213 47.7967 9.7415 47.984 9.66207C48.1769 9.57697 48.3811 9.53442 48.5967 9.53442C48.8123 9.53442 49.0137 9.57697 49.2009 9.66207C49.3938 9.7415 49.5612 9.85213 49.703 9.99397C49.8448 10.1301 49.9555 10.2947 50.0349 10.4876C50.12 10.6748 50.1626 10.8733 50.1626 11.0833ZM49.7626 22.6741H47.4223V13.5597H49.7626V22.6741ZM53.8815 22.6741H51.5412V9.9344H53.8815V22.6741ZM65.685 16.5723C65.685 17.134 65.6113 17.6758 65.4638 18.1977C65.3219 18.714 65.1177 19.1991 64.8511 19.653C64.5844 20.1012 64.2667 20.5125 63.8979 20.8869C63.5291 21.2557 63.1178 21.5734 62.6639 21.8401C62.2101 22.1067 61.7222 22.3138 61.2002 22.4613C60.6839 22.6032 60.1449 22.6741 59.5833 22.6741H55.9069V10.4705H59.5833C60.1449 10.4705 60.6839 10.5443 61.2002 10.6918C61.7222 10.8336 62.2101 11.0379 62.6639 11.3045C63.1178 11.5712 63.5291 11.8917 63.8979 12.2662C64.2667 12.6349 64.5844 13.0463 64.8511 13.5001C65.1177 13.9483 65.3219 14.4334 65.4638 14.9554C65.6113 15.4717 65.685 16.0106 65.685 16.5723ZM63.2426 16.5723C63.2426 16.0674 63.1462 15.5936 62.9533 15.1511C62.7661 14.7086 62.5051 14.3228 62.1704 13.9937C61.8413 13.659 61.4527 13.3952 61.0045 13.2023C60.5619 13.0094 60.0882 12.9129 59.5833 12.9129H58.3663V20.2317H59.5833C60.0882 20.2317 60.5619 20.1381 61.0045 19.9508C61.4527 19.7579 61.8413 19.497 62.1704 19.1679C62.5051 18.8332 62.7661 18.4445 62.9533 18.002C63.1462 17.5538 63.2426 17.0772 63.2426 16.5723ZM75.8717 18.036C75.8717 18.7169 75.7497 19.3523 75.5057 19.9423C75.2618 20.5267 74.9299 21.0345 74.5101 21.4656C74.0902 21.8911 73.5966 22.2287 73.0293 22.4783C72.4676 22.7223 71.8634 22.8443 71.2166 22.8443C70.5755 22.8443 69.9713 22.7223 69.404 22.4783C68.8423 22.2287 68.3487 21.8911 67.9232 21.4656C67.5034 21.0345 67.1715 20.5267 66.9275 19.9423C66.6836 19.3523 66.5616 18.7169 66.5616 18.036C66.5616 17.3439 66.6836 16.7028 66.9275 16.1128C67.1715 15.5227 67.5034 15.0149 67.9232 14.5894C68.3487 14.1583 68.8423 13.8207 69.404 13.5767C69.9713 13.3328 70.5755 13.2108 71.2166 13.2108C71.8634 13.2108 72.4676 13.3271 73.0293 13.5597C73.5966 13.7867 74.0902 14.1129 74.5101 14.5384C74.9299 14.9582 75.2618 15.466 75.5057 16.0617C75.7497 16.6517 75.8717 17.3098 75.8717 18.036ZM73.5314 18.036C73.5314 17.6616 73.469 17.324 73.3442 17.0233C73.225 16.717 73.0605 16.456 72.8506 16.2404C72.6407 16.0191 72.3939 15.8518 72.1102 15.7383C71.8322 15.6192 71.5343 15.5596 71.2166 15.5596C70.8989 15.5596 70.5982 15.6192 70.3146 15.7383C70.0366 15.8518 69.7926 16.0191 69.5827 16.2404C69.3784 16.456 69.2168 16.717 69.0976 17.0233C68.9785 17.324 68.9189 17.6616 68.9189 18.036C68.9189 18.3878 68.9785 18.714 69.0976 19.0147C69.2168 19.3154 69.3784 19.5764 69.5827 19.7976C69.7926 20.0189 70.0366 20.1948 70.3146 20.3253C70.5982 20.4501 70.8989 20.5125 71.2166 20.5125C71.5343 20.5125 71.8322 20.4529 72.1102 20.3338C72.3939 20.2146 72.6407 20.0473 72.8506 19.8317C73.0605 19.6161 73.225 19.3551 73.3442 19.0488C73.469 18.7424 73.5314 18.4048 73.5314 18.036ZM79.48 22.6741H77.1567V13.5597H77.7184L78.4843 14.4448C78.8587 14.1044 79.2814 13.8434 79.7523 13.6618C80.2289 13.4746 80.7253 13.381 81.2416 13.381C81.7976 13.381 82.3224 13.4888 82.816 13.7044C83.3095 13.9143 83.7407 14.2065 84.1095 14.5809C84.4783 14.9497 84.7676 15.3837 84.9775 15.883C85.1931 16.3766 85.3009 16.9042 85.3009 17.4659V22.6741H82.9776V17.4659C82.9776 17.2276 82.9323 17.0035 82.8415 16.7936C82.7507 16.578 82.6259 16.3908 82.467 16.2319C82.3082 16.073 82.1238 15.9482 81.9139 15.8575C81.704 15.7667 81.4799 15.7213 81.2416 15.7213C80.9976 15.7213 80.7678 15.7667 80.5523 15.8575C80.3367 15.9482 80.1494 16.073 79.9906 16.2319C79.8317 16.3908 79.7069 16.578 79.6161 16.7936C79.5254 17.0035 79.48 17.2276 79.48 17.4659V22.6741ZM90.5857 20.4444C90.6765 20.4728 90.7673 20.4926 90.858 20.504C90.9488 20.5097 91.0396 20.5125 91.1304 20.5125C91.3573 20.5125 91.5757 20.4813 91.7856 20.4189C91.9956 20.3565 92.1913 20.2685 92.3728 20.1551C92.5601 20.0359 92.7246 19.8941 92.8664 19.7296C93.0139 19.5594 93.1331 19.3721 93.2238 19.1679L94.9259 20.8784C94.7103 21.1848 94.4607 21.46 94.177 21.7039C93.899 21.9479 93.5955 22.155 93.2664 22.3252C92.943 22.4954 92.5998 22.623 92.2367 22.7081C91.8792 22.7989 91.5105 22.8443 91.1304 22.8443C90.4893 22.8443 89.885 22.7251 89.3177 22.4868C88.756 22.2486 88.2624 21.9167 87.8369 21.4912C87.4171 21.0657 87.0852 20.5607 86.8412 19.9764C86.5973 19.3863 86.4753 18.7396 86.4753 18.036C86.4753 17.3155 86.5973 16.6574 86.8412 16.0617C87.0852 15.466 87.4171 14.9582 87.8369 14.5384C88.2624 14.1185 88.756 13.7923 89.3177 13.5597C89.885 13.3271 90.4893 13.2108 91.1304 13.2108C91.5105 13.2108 91.8821 13.2562 92.2452 13.347C92.6083 13.4377 92.9515 13.5682 93.2749 13.7384C93.604 13.9086 93.9103 14.1185 94.194 14.3682C94.4777 14.6121 94.7273 14.8873 94.9429 15.1937L90.5857 20.4444ZM91.7771 15.6532C91.6693 15.6135 91.5615 15.588 91.4537 15.5766C91.3516 15.5653 91.2438 15.5596 91.1304 15.5596C90.8126 15.5596 90.512 15.6192 90.2283 15.7383C89.9503 15.8518 89.7063 16.0163 89.4964 16.2319C89.2922 16.4475 89.1305 16.7085 89.0113 17.0148C88.8922 17.3155 88.8326 17.6559 88.8326 18.036C88.8326 18.1211 88.8355 18.2176 88.8411 18.3254C88.8525 18.4332 88.8667 18.5438 88.8837 18.6573C88.9064 18.7651 88.9319 18.87 88.9603 18.9722C88.9886 19.0743 89.0255 19.1651 89.0709 19.2445L91.7771 15.6532Z" fill="#6F63FF"/>
<rect x="10.5999" y="11.7778" width="5.4963" height="5.4963" rx="0.785185" fill="#F4F4FF"/>
<rect x="17.2739" y="11.7778" width="5.4963" height="5.4963" rx="0.785185" fill="#EBE9FF"/>
<rect x="10.5999" y="18.4518" width="5.4963" height="5.4963" rx="0.785185" fill="#DDDAFF"/>
<rect x="17.2739" y="18.4518" width="5.4963" height="5.4963" rx="0.785185" fill="#7E73FF"/>
</svg>
